<?xml version="1.0" encoding="UTF-8"?>
<!DOCTYPE svg  PUBLIC '-//W3C//DTD SVG 1.1//EN'  'http://www.w3.org/Graphics/SVG/1.1/DTD/svg11.dtd'>
<svg width="150px" height="68px" clip-rule="evenodd" fill-rule="evenodd" image-rendering="optimizeQuality" shape-rendering="geometricPrecision" text-rendering="geometricPrecision" version="1.1" viewBox="0 0 19562 8858" xml:space="preserve" xmlns="http://www.w3.org/2000/svg">
 <g fill="#E6E6E6">
  
  <path d="m2220 4795c-26 583-508 1048-1099 1048h-1101v-1652c0-301 248-548 550-548v1651h551c303 0 550-245 550-548v-1097c0-303-247-549-550-549h-551c-302 0-550-246-550-548h1030c46 0 92-1 137 2 577 34 1034 511 1034 1095v1062c0 28 0 56-1 84z"/>
  <path d="m10736 1884c119-373 368-501 843-485-287 117-562 225-743 493-82 121-33 173 53 189 306 59 660-195 825-429 131-188 219-408 251-601 17-100 14-73-59-27-459 288-924 49-1212 451-226-986-1253-682-1952-1428-57-61-49-71-47 19 9 501 117 1499 850 1934 147 87 474 208 650 198 98-5 128-68 49-270-201-510-617-790-1049-1090 743 138 1273 580 1266 1192-2 194 165 161 222 36 26-56 35-126 53-182z"/>
  <path d="m8360 5840c248 0 476-82 660-220 101 134 261 220 440 220v-2194c-302 0-550 247-550 549v550c-2 304-248 547-550 547-303 0-549-245-550-547v-550c0-302-248-549-551-549v1100c2 604 494 1094 1101 1094z"/>
  <path d="m6159 3646c-247 0-476 82-660 220-100-134-260-221-440-221v2199h550v-1100c0-304 247-549 550-549h232c302 0 550-247 550-549h-782z"/>
  <path d="m3640 5843c608 0 1100-491 1100-1097l-2-1100c-302 0-550 247-550 549l-1 613c-31 274-264 486-547 486-304 0-550-245-550-548s246-549 550-549h547c0-265-192-488-444-538-85-17-180-11-265 2-531 78-938 534-938 1085 0 606 492 1097 1100 1097z"/>
  <path d="m13399 5843c607 0 1100-491 1100-1097l-2-1100c-303 0-551 247-551 549 0 151 14 586-18 699-65 231-277 400-529 400-304 0-551-245-551-548s247-549 551-549h547c0-244-162-452-384-522-130-42-280-28-410 1-489 112-854 548-854 1070 0 606 493 1097 1101 1097zm5042-1375h-479c95-164 273-275 476-275h479c-95 164-273 275-476 275zm-1093 426c75 534 534 945 1090 945h1103c0-302-247-549-550-549h-553c-203 0-381-110-476-274h479c723 0 1244-681 1065-1371h-1068c-671 0-1181 591-1090 1249zm-7404 946h550v-722l155-155c236 242 479 479 717 717 214 214 565 214 779 0l-1107-1105 620-619c234-233 236-574 17-792-394 392-787 785-1181 1179v-1792c-303 0-550 247-550 548v2741zm6498-928c-72 220-279 380-524 380-304 0-550-246-550-549s246-548 550-548c379 0 636 370 524 717zm-524 928c608 0 1100-491 1100-1097l-2-2191c-303 0-550 247-550 548v692c-724-415-1648 101-1648 951 0 606 492 1097 1100 1097z"/>
  <path d="m860 8468c-71 0-118-9-143-28-12-5-64-51-157-138-56 123-148 184-275 184-77 0-144-29-201-86-56-57-84-127-84-211 0-56 19-113 58-171 20-33 59-79 117-137l-43-53 102-105 448 492c36 40 64 68 83 84 19 10 51 15 95 15v154zm-430-267c0-26-9-54-27-84l-119-123c-56 53-92 93-109 120-16 28-24 56-24 87 0 26 12 55 35 88 23 32 57 49 102 49 44 0 80-18 109-52 22-26 33-55 33-85z" fill-rule="nonzero"/>
  <path d="m1002 7740c0-14 3-27 8-40s12-24 21-33 20-17 32-23c13-5 26-8 40-8 13 0 26 3 38 8 12 6 23 14 32 23s17 20 22 33 8 26 8 40-3 28-8 40c-5 13-13 24-22 33-9 10-20 17-32 22-12 6-25 9-38 9-14 0-27-3-40-9-12-5-23-12-32-22-9-9-16-20-21-33-5-12-8-26-8-40zm258 476c0 67-21 126-65 176-43 51-94 76-153 76h-242v-154h195c49 0 83-13 101-39 7-12 10-40 10-82v-211h154v234z" fill-rule="nonzero"/>
  <path d="m1765 8468c-130 0-220-25-268-75-34-39-51-93-51-163v-731h150v665c0 70 9 112 27 127 18 16 65 23 142 23v154z" fill-rule="nonzero"/>
  <path d="m2569 8169-344 201c-75 44-145 71-209 82-65 11-168 16-309 16v-154h119c58 0 95-3 114-8 63-7 121-24 176-49 36-16 85-44 147-84l142-80c-14-39-48-66-102-79-48-9-177-13-387-13l-21-151h368c204 0 306 107 306 319zm-528-559c0-14 2-27 8-40 5-13 12-24 21-33 9-10 20-17 32-23s26-8 40-8c13 0 26 2 38 8s23 13 32 23c9 9 16 20 22 33 5 13 8 26 8 40s-3 28-8 40c-6 13-13 23-22 33-9 9-20 17-32 22-12 6-25 8-38 8-14 0-28-2-40-8-12-5-23-13-32-22-9-10-16-20-21-33-6-12-8-26-8-40z" fill-rule="nonzero"/>
  <path d="m3245 8488c0 90-36 174-109 252-73 79-162 118-266 118h-190l-21-152h188c74 0 135-24 181-72s70-103 70-166c-115 0-204-16-266-49-81-40-121-121-121-242 0-130 30-223 90-279 40-33 99-49 179-49 113 0 190 48 233 145 21 59 32 158 32 301v193zm-147-174v-162c0-99-40-148-118-148-37 0-64 10-83 31-20 23-30 68-30 134 0 58 15 97 44 116 29 20 91 29 187 29z" fill-rule="nonzero"/>
  <path d="m3922 8440c0 112-36 209-108 293-71 84-160 125-265 125h-197l-27-157h167c89 0 159-25 211-76 42-39 64-88 64-146v-497h155v458z" fill-rule="nonzero"/>
  <polygon points="4279 8468 4130 8468 4130 7477 4279 7477" fill-rule="nonzero"/>
  <path d="m5154 8263c0 61-20 110-60 148s-94 57-161 57h-459l-22-154h473c56 0 84-20 84-61 0-21-8-40-25-56l-335-369 100-105 340 370c43 51 65 107 65 170z" fill-rule="nonzero"/>
  <path d="m6742 8216c0 67-22 126-66 176-44 51-94 76-150 76h-788c-59 0-109-26-151-79-41-52-62-110-62-173v-234h148v211c0 37 5 64 14 82 16 26 48 39 96 39h700c48 0 80-13 95-39 10-12 14-39 14-82v-211h150v234zm-573-482c0-13 3-27 8-40 5-12 12-23 21-33 9-9 20-17 32-22 12-6 26-9 39-9 14 0 27 3 39 9 12 5 23 13 32 22 9 10 16 21 22 33 5 13 8 27 8 40 0 15-3 28-8 41-6 12-13 23-22 32-9 10-20 17-32 23-12 5-25 8-39 8-13 0-27-3-39-8-12-6-23-13-32-23-9-9-16-20-21-32-5-13-8-26-8-41zm-228 0c0-13 3-27 8-40 5-12 13-23 22-33 9-9 19-17 31-22 13-6 25-9 40-9 13 0 26 3 38 9 12 5 23 13 32 22 9 10 17 21 22 33 6 13 8 27 8 40 0 15-2 28-8 41-5 12-13 23-22 32-9 10-20 17-32 23-12 5-25 8-38 8-15 0-27-3-40-8-12-6-22-13-31-23-9-9-17-20-22-32-5-13-8-26-8-41z" fill-rule="nonzero"/>
  <path d="m7553 8230c0 60-13 110-39 149-43 59-108 89-195 89h-141c-195 0-292-79-292-238v-753h150v687c0 74 9 118 27 132 12 12 50 18 115 18h132c39 0 67-13 86-39 9-22 14-59 14-111v-687h143v753z" fill-rule="nonzero"/>
  <path d="m8378 8468h-101c0 102-38 195-113 278-32 34-72 61-120 82-48 20-99 30-151 30h-193l-22-152h190c74 0 134-24 181-72 48-48 71-103 71-166-117 0-206-16-265-49-81-40-122-121-122-242 0-130 31-223 92-279 38-32 97-48 176-48 113 0 193 50 238 150 25 63 38 168 38 314h101v154zm-251-154v-148c0-61-17-105-51-131-22-21-47-31-75-31-38 0-66 10-82 31-22 23-33 68-33 134 0 56 16 94 47 115 32 20 97 30 194 30z" fill-rule="nonzero"/>
  <path d="m9671 8468h-755c-102 0-173-41-211-123-60 82-127 123-204 123h-179v-154h166c69 0 104-39 104-116v-216h147v200c0 88 49 132 146 132 55-149 118-263 189-343 72-80 147-121 225-121 37 0 76 13 117 38 94 58 142 151 142 281 0 40-7 89-21 145h134v154zm-262-304c0-64-16-112-47-144-5-3-20-8-44-13-41 0-92 32-152 98-46 51-90 121-132 209h291c56 0 84-50 84-150z" fill-rule="nonzero"/>
  <path d="m10533 8468c-80 0-138-10-176-29-25-13-45-38-61-74l-18-80c-61 40-119 74-176 102-51 23-92 41-123 53-69 19-189 28-361 28v-154h119c57 0 95-3 114-8 62-7 121-24 175-49 37-16 86-44 148-84l142-80c-14-39-48-66-102-79-48-9-177-13-387-13l-22-151h369c97 0 172 28 226 82 53 54 79 134 79 238l-139 79c0 44 64 66 193 66v153z" fill-rule="nonzero"/>
  <path d="m11156 8169c0 96-21 172-63 229-47 62-112 93-196 93-63 0-119-19-167-59-55 24-139 36-252 36v-154c82 0 131-9 146-26 5-9 8-48 8-119 0-90 23-165 69-227 46-61 111-92 197-92 81 0 144 31 190 93 45 62 68 137 68 226zm-127 0c0-112-44-168-132-168-86 0-130 56-130 168s44 169 130 169c88 0 132-57 132-169z" fill-rule="nonzero"/>
  <path d="m12569 8468h-138l7 75c0 87-34 162-102 223-67 62-142 92-225 92h-232c-113 0-206-44-278-134-61-84-91-188-91-312v-275h151v338c0 53 18 104 55 150 47 54 113 81 197 81h191c50 0 92-14 126-41 39-31 58-74 58-131 0-28-24-46-71-54-46-8-125-12-236-12l-13-154h601v154z" fill-rule="nonzero"/>
  <path d="m13861 8468h-755c-103 0-173-41-212-123-59 82-127 123-203 123h-179v-154h166c69 0 104-39 104-116v-216h147v200c0 88 49 132 146 132 55-149 117-263 189-343s147-121 225-121c37 0 75 13 116 38 95 58 142 151 142 281 0 40-6 89-20 145h134v154zm-262-304c0-64-16-112-47-144-6-3-20-8-44-13-41 0-92 32-152 98-46 51-90 121-132 209h290c57 0 85-50 85-150z" fill-rule="nonzero"/>
  <path d="m15159 8468h-755c-103 0-173-41-212-123-59 82-127 123-203 123h-179v-154h166c69 0 104-39 104-116v-216h147v200c0 88 49 132 146 132 55-149 118-263 189-343 72-80 147-121 225-121 37 0 75 13 116 38 95 58 142 151 142 281 0 40-6 89-20 145h134v154zm-262-304c0-64-16-112-47-144-5-3-20-8-44-13-41 0-92 32-152 98-46 51-90 121-132 209h290c57 0 85-50 85-150z" fill-rule="nonzero"/>
  <path d="m16021 8468c-80 0-138-10-176-29-25-13-45-38-61-74l-18-80c-61 40-119 74-177 102-50 23-91 41-123 53-68 19-188 28-360 28v-154h119c57 0 95-3 114-8 62-7 121-24 175-49 37-16 86-44 148-84l142-80c-15-39-48-66-102-79-48-9-177-13-387-13l-22-151h369c97 0 172 28 226 82 53 54 79 134 79 238l-139 79c0 44 64 66 193 66v153zm-568-842c0-13 3-27 8-40 5-12 12-23 21-33 9-9 20-17 32-22 12-6 26-9 40-9 13 0 26 3 38 9 12 5 23 13 32 22 9 10 17 21 22 33 5 13 8 27 8 40 0 15-3 28-8 41-5 12-13 23-22 33-9 9-20 16-32 22-12 5-25 8-38 8-14 0-28-3-40-8-12-6-23-13-32-22-9-10-16-21-21-33-5-13-8-26-8-41z" fill-rule="nonzero"/>
  <path d="m16429 8216c0 67-21 126-65 176-43 51-94 76-153 76h-242v-154h195c50 0 83-13 101-39 7-12 10-40 10-82v-211h154v234zm-190-495c0-14 3-28 8-40 5-13 13-24 21-33 10-10 20-18 33-23 12-6 25-9 39-9 13 0 26 3 38 9 12 5 23 13 32 23 9 9 17 20 22 33 5 12 8 26 8 40s-3 27-8 40c-5 12-13 23-22 33-9 9-20 16-32 22-12 5-25 8-38 8-14 0-27-3-39-8-13-6-23-13-33-22-8-10-16-21-21-33-5-13-8-26-8-40zm-227 0c0-14 2-28 7-40 6-13 13-24 22-33 9-10 20-18 32-23 12-6 25-9 39-9 13 0 26 3 38 9 12 5 23 13 32 23 9 9 17 20 22 33 6 12 8 26 8 40s-2 27-8 40c-5 12-13 23-22 33-9 9-20 16-32 22-12 5-25 8-38 8-14 0-27-3-39-8-12-6-23-13-32-22-9-10-16-21-22-33-5-13-7-26-7-40z" fill-rule="nonzero"/>
  <path d="m18254 8468c-111 0-194-37-246-110-27 73-92 110-193 110h-785c-60 0-110-25-151-74-40-50-61-109-61-179v-233h150v211c0 43 5 70 14 82 16 26 48 39 98 39h727c50 0 74-19 74-57 0-19-11-42-34-70l-366-422-26-151 576-230 22 140-434 167 408 478 108 112c31 22 71 33 119 33v154z" fill-rule="nonzero"/>
  <path d="m18389 7740c0-14 3-27 8-40s13-24 22-33 20-17 32-23c12-5 25-8 39-8s27 3 39 8c12 6 23 14 32 23s16 20 21 33 8 26 8 40-3 28-8 40c-5 13-12 24-21 33-9 10-20 17-32 22-12 6-25 9-39 9s-27-3-39-9c-12-5-23-12-32-22-9-9-17-20-22-33-5-12-8-26-8-40zm259 476c0 67-22 126-65 176-43 51-95 76-153 76h-243v-154h196c49 0 82-13 100-39 7-12 11-40 11-82v-211h154v234z" fill-rule="nonzero"/>
  <path d="m19152 8468c-130 0-219-25-267-75-34-39-51-93-51-163v-731h150v665c0 70 9 112 26 127 18 16 66 23 142 23v154z" fill-rule="nonzero"/>
  <path d="m19285 8719c0-14 3-28 8-40 5-13 12-24 21-33 9-10 20-17 32-23 13-6 26-8 40-8 13 0 26 2 38 8s23 13 32 23c9 9 17 20 22 33 5 12 8 26 8 40s-3 28-8 40c-5 13-13 23-22 33-9 9-20 17-32 22-12 6-25 8-38 8-14 0-27-2-40-8-12-5-23-13-32-22-9-10-16-20-21-33-5-12-8-26-8-40zm277-503c0 67-22 126-65 176-43 51-94 76-153 76h-243v-154h196c49 0 83-13 101-39 6-12 10-40 10-82v-211h154v234z" fill-rule="nonzero"/>
 </g>
</svg>
