<svg id="Layer_1" data-name="Layer 1" xmlns="http://www.w3.org/2000/svg" width="100" height="44" viewBox="0 0 100 44"><defs><style>.cls-1{fill:#fff;fill-rule:evenodd;}</style></defs><title>dadadad</title><g id="Layer_1-2" data-name="Layer_1"><g id="_2748347121104" data-name=" 2748347121104"><path class="cls-1" d="M11.26805,31.092a5.64435,5.64435,0,0,1-5.631,5.401H.00005v-8.51a2.83065,2.83065,0,0,1,2.818-2.827v8.51h2.819a2.82207,2.82207,0,0,0,2.818-2.826V25.186a2.82229,2.82229,0,0,0-2.818-2.827h-2.819a2.83065,2.83065,0,0,1-2.818-2.827h5.276c.234,0,.468-.004.703.01a5.64734,5.64734,0,0,1,5.295,5.644V30.66C11.27405,30.805,11.27505,30.947,11.26805,31.092Z"/><path class="cls-1" d="M53.95605,14.572c-1.077-4.726-5.972-3.27-9.304-6.849-.269-.289-.231-.336-.223.094.041,2.404.559,7.188,4.052,9.275a7.34535,7.34535,0,0,0,3.098.951c.466-.025.612-.329.233-1.296-.956-2.445-2.941-3.791-5.002-5.226,3.545.661,6.071,2.778,6.036,5.716-.011.931.815.783,1.059.173A5.70032,5.70032,0,0,0,53.95605,14.572Z"/><path class="cls-1" d="M42.72005,36.48a5.59736,5.59736,0,0,0,3.384-1.132,2.81616,2.81616,0,0,0,2.253,1.132V25.173A2.8315,2.8315,0,0,0,45.53805,28v2.836a2.818,2.818,0,0,1-5.636.002V28a2.8315,2.8315,0,0,0-2.819-2.827V30.84A5.645,5.645,0,0,0,42.72005,36.48Z"/><path class="cls-1" d="M31.44905,25.173a5.59847,5.59847,0,0,0-3.382,1.13,2.81363,2.81363,0,0,0-2.255-1.136V36.5h2.818V30.833A2.82252,2.82252,0,0,1,31.44905,28h1.183a2.8315,2.8315,0,0,0,2.819-2.827Z"/><path class="cls-1" d="M18.54305,36.493a5.64521,5.64521,0,0,0,5.637-5.653l-.012-5.667A2.8315,2.8315,0,0,0,21.349,28l-.006,3.16a2.81907,2.81907,0,1,1-2.8-3.147h2.803a2.83438,2.83438,0,0,0-2.277-2.774,4.10791,4.10791,0,0,0-1.355.008,5.6549,5.6549,0,0,0,.829,11.246Z"/><path class="cls-1" d="M68.531,36.493a5.64457,5.64457,0,0,0,5.637-5.653l-.011-5.667A2.83086,2.83086,0,0,0,71.33805,28a25.81809,25.81809,0,0,1-.093,3.607,2.82013,2.82013,0,1,1-2.714-3.594h2.804a2.8367,2.8367,0,0,0-1.966-2.694,4.092,4.092,0,0,0-2.099.009,5.656,5.656,0,0,0,1.261,11.165Zm25.829-7.086H91.906a2.81673,2.81673,0,0,1,2.441-1.414h2.455A2.81714,2.81714,0,0,1,94.36005,29.407Zm-5.595,2.198a5.64251,5.64251,0,0,0,5.582,4.869h5.65a2.83065,2.83065,0,0,0-2.818-2.827h-2.832a2.81583,2.81583,0,0,1-2.441-1.413h2.454a5.655,5.655,0,0,0,5.46-7.067h-5.473A5.6467,5.6467,0,0,0,88.76505,31.605Zm-37.93,4.876h2.818V32.759l.794-.798c1.206,1.243,2.451,2.468,3.675,3.696a2.82162,2.82162,0,0,0,3.986,0l-5.67-5.697,3.175-3.189a2.83424,2.83424,0,0,0,.09-4.086q-3.027,3.0375-6.05,6.077V19.527a2.83043,2.83043,0,0,0-2.818,2.826Zm33.285-4.783A2.82049,2.82049,0,1,1,81.43805,28,2.821,2.821,0,0,1,84.12005,31.698Zm-2.682,4.783a5.64522,5.64522,0,0,0,5.636-5.654l-.012-11.295a2.83064,2.83064,0,0,0-2.818,2.827v3.563a5.64913,5.64913,0,1,0-2.806,10.559Z"/><path class="cls-1" d="M54.46505,14.695c.108.551.582.33.892.124a4.70034,4.70034,0,0,1,2.813-.565,7.02276,7.02276,0,0,0-3.542,2.365c-.39.582-.157.827.256.907,1.457.282,3.145-.937,3.929-2.061a7.284,7.284,0,0,0,1.199-2.878c.078-.483.065-.351-.281-.133a8.29441,8.29441,0,0,1-3.557.922C55.34905,13.508,54.26605,13.678,54.46505,14.695Z"/></g></g></svg>