<?xml version="1.0" encoding="UTF-8"?>
<!DOCTYPE svg PUBLIC "-//W3C//DTD SVG 1.1//EN" "http://www.w3.org/Graphics/SVG/1.1/DTD/svg11.dtd">
<!-- Creator: CorelDRAW 2019 (64-Bit) -->
<svg xmlns="http://www.w3.org/2000/svg" xml:space="preserve" width="156px" height="45px" version="1.1" shape-rendering="geometricPrecision" text-rendering="geometricPrecision" image-rendering="optimizeQuality" fill-rule="evenodd" clip-rule="evenodd"
viewBox="0 0 156 45.12"
 xmlns:xlink="http://www.w3.org/1999/xlink">
 <g id="Layer_x0020_1">
  <metadata id="CorelCorpID_0Corel-Layer"/>
  <g id="_2105679177568">
   <g id="_2748347121104">
    <path fill="white" d="M17.543 37.11c-0.205,4.662 -4.061,8.38 -8.788,8.38l-8.8 0 0 -13.206c0,-2.413 1.979,-4.386 4.399,-4.386l0 13.205 4.401 0c2.427,0 4.397,-1.963 4.397,-4.384l0 -8.774c0,-2.425 -1.97,-4.387 -4.397,-4.387l-4.401 0c-2.419,0 -4.399,-1.974 -4.399,-4.387l8.236 0c0.364,0 0.73,-0.007 1.096,0.015 4.612,0.275 8.265,4.092 8.265,8.757l0 8.495c0,0.226 0.002,0.446 -0.009,0.671l0 0.002 0 -0.001z"/>
    <path fill="white" stroke="white" stroke-width="0.122" stroke-miterlimit="2.61313" d="M84.175 11.475c-1.682,-7.335 -9.322,-5.076 -14.522,-10.629 -0.421,-0.449 -0.361,-0.522 -0.349,0.146 0.064,3.73 0.872,11.154 6.325,14.394 1.095,0.65 3.527,1.543 4.837,1.475 0.726,-0.038 0.955,-0.51 0.362,-2.011 -1.492,-3.794 -4.589,-5.882 -7.807,-8.11 5.533,1.027 9.477,4.311 9.421,8.871 -0.017,1.445 1.273,1.214 1.654,0.269 0.425,-1.061 0.394,-3.038 0.08,-4.405l0 0 -0.001 0z"/>
    <path fill="white" d="M66.636 45.469c1.982,0 3.811,-0.652 5.283,-1.756 0.804,1.067 2.084,1.756 3.516,1.756l0 -17.544c-2.419,0 -4.4,1.974 -4.4,4.386l0 4.401c-0.018,2.433 -1.978,4.373 -4.399,4.373 -2.425,0 -4.388,-1.955 -4.398,-4.369l0 -4.405c0,-2.412 -1.982,-4.386 -4.4,-4.386l0 8.793c0.011,4.835 3.946,8.753 8.798,8.753l0 -0.002z"/>
    <path fill="white" d="M49.043 27.924c-1.981,0 -3.809,0.652 -5.278,1.753 -0.805,-1.069 -2.084,-1.763 -3.519,-1.763l0 17.586 4.399 0 0 -8.794c0,-2.436 1.969,-4.395 4.399,-4.395l1.848 0c2.418,0 4.399,-1.975 4.399,-4.387l-6.247 0 0 0 -0.001 0z"/>
    <path fill="white" d="M28.898 45.489c4.859,0 8.799,-3.927 8.799,-8.771l-0.019 -8.794c-2.419,0 -4.4,1.973 -4.4,4.387l-0.009 4.904c-0.247,2.188 -2.109,3.889 -4.371,3.889 -2.429,0 -4.4,-1.965 -4.4,-4.386 0,-2.424 1.97,-4.387 4.4,-4.387l4.375 0c0,-2.126 -1.535,-3.912 -3.553,-4.305 -0.682,-0.134 -1.439,-0.087 -2.115,0.012 -4.246,0.625 -7.505,4.273 -7.505,8.679 0,4.845 3.94,8.772 8.798,8.772l0 0z"/>
    <path fill="white" d="M106.925 45.489c4.861,0 8.799,-3.927 8.799,-8.771l-0.017 -8.794c-2.422,0 -4.401,1.973 -4.401,4.387 0,1.209 0.11,4.693 -0.145,5.597 -0.52,1.843 -2.22,3.196 -4.236,3.196 -2.43,0 -4.4,-1.965 -4.4,-4.386 0,-2.424 1.97,-4.387 4.4,-4.387l4.377 0c0,-1.951 -1.294,-3.617 -3.07,-4.181 -1.037,-0.331 -2.24,-0.222 -3.275,0.014 -3.912,0.892 -6.83,4.383 -6.83,8.554 0,4.843 3.938,8.771 8.798,8.771l0 0zm40.316 -10.995l-3.831 0c0.762,-1.31 2.183,-2.194 3.809,-2.194l3.834 0c-0.763,1.31 -2.182,2.194 -3.812,2.194zm-8.734 3.411c0.594,4.269 4.269,7.555 8.714,7.555l8.818 0c0,-2.412 -1.978,-4.386 -4.398,-4.386l-4.42 0c-1.628,0 -3.05,-0.882 -3.811,-2.194l3.831 0c5.781,0 9.946,-5.448 8.523,-10.966l-8.543 0c-5.367,0 -9.446,4.727 -8.713,9.991l-0.001 0zm-59.204 7.566l4.399 0 0 -5.776 1.239 -1.238c1.882,1.929 3.825,3.83 5.736,5.736 1.71,1.705 4.511,1.705 6.222,0l-8.851 -8.84 4.956 -4.949c1.873,-1.868 1.892,-4.594 0.141,-6.341 -3.149,3.142 -6.292,6.285 -9.443,9.43l0 -14.329c-2.42,0 -4.399,1.974 -4.399,4.384l0 21.923zm51.954 -7.422c-0.571,1.761 -2.23,3.034 -4.186,3.034 -2.431,0 -4.4,-1.964 -4.4,-4.386 0,-2.424 1.969,-4.386 4.4,-4.386 3.03,0 5.086,2.963 4.186,5.738l0 0zm-4.186 7.422c4.86,0 8.798,-3.929 8.798,-8.774l-0.021 -17.527c-2.418,0 -4.397,1.974 -4.397,4.387l0 5.528c-5.785,-3.317 -13.179,0.812 -13.179,7.611 0,4.846 3.939,8.774 8.799,8.774l0 0.001z"/>
    <path fill="white" stroke="white" stroke-width="0.122" stroke-miterlimit="2.61313" d="M84.969 11.664c0.169,0.856 0.909,0.513 1.393,0.193 1.041,-0.69 2.467,-0.943 4.39,-0.876 -2.134,0.87 -4.184,1.677 -5.529,3.67 -0.609,0.902 -0.245,1.282 0.4,1.406 2.274,0.438 4.908,-1.453 6.133,-3.197 0.98,-1.395 1.634,-3.033 1.87,-4.466 0.122,-0.75 0.102,-0.546 -0.437,-0.207 -1.916,1.201 -3.851,1.162 -5.552,1.43 -1.289,0.205 -2.979,0.47 -2.668,2.047l0 0z"/>
   </g>
  </g>
 </g>
</svg>
